<svg viewBox="0 0 225 40" xmlns="http://www.w3.org/2000/svg" data-logo="logo">
                <g transform="translate(0, 0)" id="logogram"><path fill="#AF3CD2" d="M0 20C0 10.572 9.53674e-07 5.857 2.929 2.929C5.857 9.53674e-07 10.571 0 20 0C29.428 0 34.142 9.53674e-07 37.071 2.929C40 5.857 40 10.572 40 20C40 29.428 40 34.142 37.071 37.071C34.142 40 29.428 40 20 40C10.571 40 5.857 40 2.929 37.071C9.53674e-07 34.142 0 29.428 0 20Z"></path><path fill="#FFFFFF" d="M26.668 17.6251C27.528 17.3941 27.68 16.2381 26.909 15.7931L26.402 15.5001C25.923 15.2241 25.752 14.6 26.138 14.205C26.544 13.789 27.039 13.4641 27.591 13.2561C28.457 12.9301 29.409 12.914 30.285 13.212C31.162 13.509 31.908 14.1021 32.396 14.8871C32.885 15.6731 33.086 16.604 32.965 17.522C32.845 18.439 32.409 19.2871 31.734 19.9191C31.059 20.5521 30.185 20.9311 29.261 20.9911C28.338 21.0521 27.422 20.7901 26.67 20.2511C26.191 19.9081 25.797 19.4651 25.512 18.9591C25.242 18.4771 25.568 17.9191 26.102 17.7761L26.668 17.6251ZM13.897 17.7761C14.431 17.9191 14.757 18.4771 14.487 18.9591C14.202 19.4651 13.808 19.9081 13.329 20.2511C12.577 20.7901 11.661 21.0521 10.738 20.9911C9.81499 20.9311 8.94098 20.5521 8.26498 19.9191C7.58998 19.2871 7.15499 18.439 7.03399 17.522C6.91299 16.604 7.114 15.6731 7.603 14.8871C8.091 14.1021 8.83799 13.509 9.71399 13.212C10.59 12.914 11.542 12.9301 12.409 13.2561C12.96 13.4641 13.455 13.789 13.861 14.205C14.247 14.6 14.076 15.2241 13.598 15.5001L13.09 15.7931C12.319 16.2381 12.471 17.3941 13.331 17.6251L13.897 17.7761ZM23.999 26.0001C24.552 26.0001 25.01 26.4521 24.9 26.9931C24.706 27.9491 24.235 28.835 23.535 29.535C22.597 30.473 21.326 31.0001 19.999 31.0001C18.673 31.0001 17.402 30.473 16.464 29.535C15.764 28.835 15.293 27.9491 15.099 26.9931C14.989 26.4521 15.447 26.0001 15.999 26.0001H23.999Z"></path></g>
                <g transform="translate(48, 10.5)" id="logotype"><path d="M32.88 0.73L32.88 12.39Q32.88 13.82 32.34 15.09Q31.79 16.37 30.84 17.31Q29.89 18.25 28.62 18.79Q27.35 19.34 25.89 19.34L25.89 19.34Q24.59 19.34 23.40 18.89Q22.20 18.44 21.23 17.56L21.23 17.56Q20.27 18.44 19.08 18.89Q17.90 19.34 16.58 19.34L16.58 19.34Q15.13 19.34 13.86 18.79Q12.60 18.25 11.65 17.31Q10.70 16.37 10.15 15.09Q9.61 13.82 9.61 12.39L9.61 12.39L9.61 0.73L14.27 0.73L14.27 12.39Q14.27 12.86 14.45 13.28Q14.63 13.70 14.95 14.02Q15.26 14.33 15.68 14.51Q16.10 14.69 16.58 14.69L16.58 14.69Q17.06 14.69 17.48 14.51Q17.91 14.33 18.24 14.02Q18.56 13.70 18.74 13.28Q18.92 12.86 18.92 12.39L18.92 12.39L18.92 0.73L23.57 0.73L23.57 12.39Q23.57 12.86 23.76 13.28Q23.94 13.70 24.26 14.02Q24.58 14.33 25.00 14.51Q25.41 14.69 25.89 14.69L25.89 14.69Q26.37 14.69 26.80 14.51Q27.23 14.33 27.54 14.02Q27.86 13.70 28.05 13.28Q28.23 12.86 28.23 12.39L28.23 12.39L28.23 0.73L32.88 0.73ZM53.99 0.73L53.99 19L52.86 19L51.05 16.49Q50.38 17.09 49.64 17.61Q48.90 18.13 48.08 18.51Q47.26 18.90 46.39 19.12Q45.53 19.34 44.64 19.34L44.64 19.34Q42.71 19.34 41.01 18.69Q39.31 18.04 38.04 16.80Q36.76 15.56 36.03 13.77Q35.29 11.98 35.29 9.69L35.29 9.69Q35.29 7.55 36.03 5.76Q36.76 3.98 38.04 2.70Q39.31 1.41 41.01 0.71Q42.71-0.00 44.64-0.00L44.64-0.00Q45.53-0.00 46.40 0.22Q47.27 0.44 48.09 0.83Q48.91 1.23 49.66 1.76Q50.40 2.29 51.05 2.90L51.05 2.90L52.86 0.73L53.99 0.73ZM49.29 9.69L49.29 9.69Q49.29 8.73 48.92 7.83Q48.55 6.93 47.92 6.24Q47.29 5.55 46.44 5.13Q45.60 4.71 44.64 4.71L44.64 4.71Q43.68 4.71 42.84 5.04Q41.99 5.36 41.37 5.99Q40.74 6.63 40.39 7.56Q40.03 8.49 40.03 9.69L40.03 9.69Q40.03 10.88 40.39 11.81Q40.74 12.75 41.37 13.38Q41.99 14.01 42.84 14.33Q43.68 14.66 44.64 14.66L44.64 14.66Q45.60 14.66 46.44 14.24Q47.29 13.82 47.92 13.13Q48.55 12.44 48.92 11.54Q49.29 10.64 49.29 9.69ZM62.24-6.58L62.24 19L57.54 19L57.54-6.58L62.24-6.58ZM70.50-6.58L70.50 19L65.80 19L65.80-6.58L70.50-6.58ZM91.77 0.73L91.77 19L90.65 19L88.83 16.49Q88.17 17.09 87.43 17.61Q86.68 18.13 85.86 18.51Q85.04 18.90 84.18 19.12Q83.31 19.34 82.43 19.34L82.43 19.34Q80.50 19.34 78.79 18.69Q77.09 18.04 75.82 16.80Q74.55 15.56 73.81 13.77Q73.08 11.98 73.08 9.69L73.08 9.69Q73.08 7.55 73.81 5.76Q74.55 3.98 75.82 2.70Q77.09 1.41 78.79 0.71Q80.50-0.00 82.43-0.00L82.43-0.00Q83.31-0.00 84.19 0.22Q85.06 0.44 85.88 0.83Q86.70 1.23 87.44 1.76Q88.19 2.29 88.83 2.90L88.83 2.90L90.65 0.73L91.77 0.73ZM87.07 9.69L87.07 9.69Q87.07 8.73 86.71 7.83Q86.34 6.93 85.71 6.24Q85.08 5.55 84.23 5.13Q83.38 4.71 82.43 4.71L82.43 4.71Q81.47 4.71 80.62 5.04Q79.78 5.36 79.15 5.99Q78.53 6.63 78.17 7.56Q77.81 8.49 77.81 9.69L77.81 9.69Q77.81 10.88 78.17 11.81Q78.53 12.75 79.15 13.38Q79.78 14.01 80.62 14.33Q81.47 14.66 82.43 14.66L82.43 14.66Q83.38 14.66 84.23 14.24Q85.08 13.82 85.71 13.13Q86.34 12.44 86.71 11.54Q87.07 10.64 87.07 9.69ZM101.26 5.35L101.26 19L96.59 19L96.59 5.35L94.32 5.35L94.32 0.70L96.59 0.70L96.59-0.17Q96.59-1.87 97.23-3.35Q97.88-4.84 98.99-5.94Q100.11-7.04 101.60-7.69Q103.09-8.33 104.78-8.33L104.78-8.33L108.28-8.33L108.28-3.68L104.78-3.68Q104.03-3.68 103.39-3.41Q102.75-3.15 102.28-2.68Q101.81-2.21 101.53-1.57Q101.26-0.93 101.26-0.17L101.26-0.17L101.26 0.70L106.98 0.70L106.98 5.35L101.26 5.35ZM113.85 8.92L113.85 19L109.19 19L109.19 0.70L110.32 0.70L111.85 2.87Q112.98 1.84 114.42 1.29Q115.85 0.73 117.39 0.73L117.39 0.73L121.51 0.73L121.51 5.38L117.39 5.38Q116.66 5.38 116.01 5.65Q115.36 5.93 114.88 6.40Q114.40 6.88 114.13 7.53Q113.85 8.18 113.85 8.92L113.85 8.92ZM141.03 9.69L141.03 9.69Q141.03 11.74 140.29 13.51Q139.56 15.27 138.29 16.56Q137.03 17.85 135.33 18.60Q133.63 19.34 131.68 19.34L131.68 19.34Q129.75 19.34 128.05 18.60Q126.35 17.85 125.07 16.56Q123.80 15.27 123.07 13.51Q122.33 11.74 122.33 9.69L122.33 9.69Q122.33 7.60 123.07 5.82Q123.80 4.05 125.07 2.76Q126.35 1.47 128.05 0.73Q129.75-0.00 131.68-0.00L131.68-0.00Q133.63-0.00 135.33 0.69Q137.03 1.38 138.29 2.65Q139.56 3.93 140.29 5.71Q141.03 7.50 141.03 9.69ZM136.33 9.69L136.33 9.69Q136.33 8.56 135.96 7.64Q135.59 6.73 134.96 6.07Q134.33 5.41 133.48 5.06Q132.64 4.71 131.68 4.71L131.68 4.71Q130.72 4.71 129.88 5.06Q129.03 5.41 128.41 6.07Q127.78 6.73 127.42 7.64Q127.06 8.56 127.06 9.69L127.06 9.69Q127.06 10.75 127.42 11.65Q127.78 12.56 128.41 13.22Q129.03 13.89 129.88 14.27Q130.72 14.66 131.68 14.66L131.68 14.66Q132.64 14.66 133.48 14.30Q134.33 13.94 134.96 13.29Q135.59 12.64 135.96 11.72Q136.33 10.80 136.33 9.69ZM148.27 8.54L148.27 19L143.61 19L143.61 0.70L144.74 0.70L146.27 2.47Q147.40 1.45 148.83 0.89Q150.26 0.34 151.81 0.34L151.81 0.34Q153.49 0.34 154.97 0.98Q156.46 1.62 157.57 2.74Q158.68 3.86 159.32 5.35Q159.96 6.85 159.96 8.54L159.96 8.54L159.96 19L155.30 19L155.30 8.54Q155.30 7.82 155.02 7.18Q154.75 6.54 154.27 6.06Q153.79 5.58 153.16 5.31Q152.53 5.04 151.81 5.04L151.81 5.04Q151.08 5.04 150.43 5.31Q149.78 5.58 149.30 6.06Q148.82 6.54 148.55 7.18Q148.27 7.82 148.27 8.54L148.27 8.54ZM175.75 19L172.22 19Q170.52 19 169.04 18.36Q167.55 17.72 166.43 16.60Q165.31 15.48 164.67 13.99Q164.03 12.51 164.03 10.81L164.03 10.81L164.03 5.38L161.76 5.38L161.76 0.73L164.03 0.73L164.03-6.58L168.68-6.58L168.68 0.73L175.75 0.73L175.75 5.38L168.68 5.38L168.68 10.81Q168.68 11.55 168.95 12.19Q169.23 12.83 169.70 13.31Q170.18 13.79 170.83 14.07Q171.48 14.35 172.22 14.35L172.22 14.35L175.75 14.35L175.75 19Z" fill="#AE3DD1"></path></g>
                
            </svg>